<?xml version="1.0" encoding="UTF-8"?>
<svg id="Calque_2" data-name="Calque 2" xmlns="http://www.w3.org/2000/svg" xmlns:xlink="http://www.w3.org/1999/xlink" viewBox="0 0 544.54 795.54">
  <defs>
    <style>
      .cls-1 {
        fill: url(#Dégradé_sans_nom_621-2);
      }

      .cls-1, .cls-2 {
        stroke-width: 0px;
      }

      .cls-2 {
        fill: url(#Dégradé_sans_nom_621);
      }
    </style>
    <linearGradient id="Dégradé_sans_nom_621" data-name="Dégradé sans nom 621" x1="0" y1="547.19" x2="544.54" y2="547.19" gradientUnits="userSpaceOnUse">
      <stop offset="0" stop-color="#007bff"/>
      <stop offset=".34" stop-color="#08f"/>
      <stop offset=".97" stop-color="#00abff"/>
      <stop offset="1" stop-color="#00adff"/>
    </linearGradient>
    <linearGradient id="Dégradé_sans_nom_621-2" data-name="Dégradé sans nom 621" x1=".39" y1="248.96" x2="544.15" y2="248.96" xlink:href="#Dégradé_sans_nom_621"/>
  </defs>
  <g id="Calque_1-2" data-name="Calque 1">
    <g>
      <polygon class="cls-2" points="544.54 666.08 544.54 795.5 51.15 795.54 51.15 795.5 0 795.5 0 666.08 422.05 298.85 422.05 472.79 418.47 475.63 196.46 666.08 495.17 666.02 495.21 666.08 544.54 666.08"/>
      <polygon class="cls-1" points="56.02 130.96 .39 130.96 .39 .28 493.76 0 493.89 .28 544.15 .28 544.15 130.71 172.12 454.99 122.88 497.93 122.88 324.17 126.45 321.32 348.76 130.62 56.02 130.96"/>
    </g>
  </g>
</svg>